<svg width="760" height="793" viewBox="0 0 760 793" fill="none" xmlns="http://www.w3.org/2000/svg">
<path d="M395.857 213.5C395.857 237.824 386 275 386 275C386 275 421.935 266.31 440.871 253.13C458.274 241.016 478 213.5 478 213.5C478 213.5 458.274 185.984 440.871 173.87C421.935 160.69 386 152 386 152C386 152 395.857 189.176 395.857 213.5Z" stroke="black" stroke-width="3"/>
<path d="M596.857 242.5C596.857 266.824 587 304 587 304C587 304 622.935 295.31 641.871 282.13C659.274 270.016 679 242.5 679 242.5C679 242.5 659.274 214.984 641.871 202.87C622.935 189.69 587 181 587 181C587 181 596.857 218.176 596.857 242.5Z" stroke="black" stroke-width="3"/>
<line x1="313.5" y1="243" x2="313.5" y2="323" stroke="black" stroke-width="3"/>
<line x1="500.5" y1="271" x2="500.5" y2="466" stroke="black" stroke-width="3"/>
<line x1="9.5" y1="39" x2="9.50003" y2="766" stroke="black" stroke-width="3"/>
<line x1="121" y1="223.5" x2="161" y2="223.5" stroke="black" stroke-width="3"/>
<line x1="121" y1="362.5" x2="161" y2="362.5" stroke="black" stroke-width="3"/>
<line x1="121" y1="501.5" x2="161" y2="501.5" stroke="black" stroke-width="3"/>
<path d="M312 241.5L327.5 241.5M393 241.5L377.5 241.5" stroke="black" stroke-width="3"/>
<path d="M501 272.5L527.5 272.5M594 272.5L577.5 272.5" stroke="black" stroke-width="3"/>
<line x1="8" y1="37.5" x2="55" y2="37.5" stroke="black" stroke-width="3"/>
<line x1="679" y1="241.5" x2="708" y2="241.5" stroke="black" stroke-width="3"/>
<line x1="733.5" y1="39" x2="733.5" y2="218" stroke="black" stroke-width="3"/>
<line x1="732" y1="40.5" x2="133" y2="40.5" stroke="black" stroke-width="3"/>
<path d="M478 213.5L527 213.5M594 213.5L577.5 213.5" stroke="black" stroke-width="3"/>
<line x1="273" y1="321.5" x2="313" y2="321.5" stroke="black" stroke-width="3"/>
<line x1="273" y1="464.5" x2="501" y2="464.5" stroke="black" stroke-width="3"/>
<line x1="121" y1="155.5" x2="161" y2="155.5" stroke="black" stroke-width="3"/>
<path d="M273 180.5H327.5M393 180.5H377.5" stroke="black" stroke-width="3"/>
<line x1="121" y1="294.5" x2="161" y2="294.5" stroke="black" stroke-width="3"/>
<line x1="9" y1="363.5" x2="69" y2="363.5" stroke="black" stroke-width="3"/>
<line x1="9" y1="501.5" x2="69" y2="501.5" stroke="black" stroke-width="3"/>
<line x1="9" y1="764.5" x2="69" y2="764.5" stroke="black" stroke-width="3"/>
<line x1="121" y1="433.5" x2="161" y2="433.5" stroke="black" stroke-width="3"/>
<path d="M186 714C186 714 196 676.824 196 652.5C196 628.176 186 591 186 591" stroke="black" stroke-width="3"/>
<path d="M392 734C392 734 402 696.824 402 672.5C402 648.176 392 611 392 611" stroke="black" stroke-width="3"/>
<path d="M205.857 652.5C205.857 676.824 196 714 196 714C196 714 231.935 705.31 250.871 692.13C268.274 680.016 288 652.5 288 652.5C288 652.5 268.274 624.984 250.871 612.87C231.935 599.69 196 591 196 591C196 591 205.857 628.176 205.857 652.5Z" stroke="black" stroke-width="3"/>
<path d="M411.857 672.5C411.857 696.824 402 734 402 734C402 734 437.935 725.31 456.871 712.13C474.274 700.016 494 672.5 494 672.5C494 672.5 474.274 644.984 456.871 632.87C437.935 619.69 402 611 402 611C402 611 411.857 648.176 411.857 672.5Z" stroke="black" stroke-width="3"/>
<line x1="121" y1="764.5" x2="288" y2="764.5" stroke="black" stroke-width="3"/>
<line x1="288.5" y1="703" x2="288.5" y2="766" stroke="black" stroke-width="3"/>
<line x1="121" y1="683.5" x2="202" y2="683.5" stroke="black" stroke-width="3"/>
<path d="M287 703.5L334.5 703.5M409 703.5L384.5 703.5" stroke="black" stroke-width="3"/>
<path d="M287 652.5H334M411 652.5H385" stroke="black" stroke-width="3"/>
<line x1="493" y1="672.5" x2="551" y2="672.5" stroke="black" stroke-width="3"/>
<line x1="121" y1="615.5" x2="202" y2="615.5" stroke="black" stroke-width="3"/>
<path d="M225.636 646.455L228.839 651.781H228.953L232.17 646.455H235.175L230.693 653.727L235.246 661H232.192L228.953 655.709H228.839L225.601 661H222.561L227.156 653.727L222.618 646.455H225.636ZM249.713 653.727C249.713 655.295 249.42 656.637 248.832 657.754C248.25 658.867 247.455 659.719 246.446 660.311C245.442 660.903 244.304 661.199 243.03 661.199C241.756 661.199 240.615 660.903 239.607 660.311C238.603 659.714 237.807 658.86 237.22 657.747C236.638 656.63 236.347 655.29 236.347 653.727C236.347 652.16 236.638 650.82 237.22 649.707C237.807 648.59 238.603 647.735 239.607 647.143C240.615 646.552 241.756 646.256 243.03 646.256C244.304 646.256 245.442 646.552 246.446 647.143C247.455 647.735 248.25 648.59 248.832 649.707C249.42 650.82 249.713 652.16 249.713 653.727ZM247.064 653.727C247.064 652.624 246.891 651.694 246.545 650.936C246.205 650.174 245.731 649.598 245.125 649.21C244.519 648.817 243.821 648.621 243.03 648.621C242.239 648.621 241.541 648.817 240.935 649.21C240.329 649.598 239.853 650.174 239.507 650.936C239.166 651.694 238.996 652.624 238.996 653.727C238.996 654.83 239.166 655.763 239.507 656.526C239.853 657.283 240.329 657.858 240.935 658.251C241.541 658.64 242.239 658.834 243.03 658.834C243.821 658.834 244.519 658.64 245.125 658.251C245.731 657.858 246.205 657.283 246.545 656.526C246.891 655.763 247.064 654.83 247.064 653.727ZM252.204 661V646.455H257.659C258.776 646.455 259.714 646.649 260.471 647.037C261.234 647.425 261.809 647.97 262.197 648.67C262.59 649.366 262.787 650.179 262.787 651.107C262.787 652.039 262.588 652.849 262.19 653.536C261.797 654.217 261.217 654.745 260.45 655.119C259.683 655.489 258.741 655.673 257.623 655.673H253.738V653.486H257.268C257.922 653.486 258.457 653.396 258.873 653.216C259.29 653.031 259.598 652.764 259.797 652.413C260 652.058 260.102 651.623 260.102 651.107C260.102 650.59 260 650.15 259.797 649.786C259.593 649.416 259.283 649.137 258.866 648.947C258.449 648.753 257.912 648.656 257.254 648.656H254.839V661H252.204ZM259.718 654.409L263.319 661H260.379L256.842 654.409H259.718Z" fill="black"/>
<path d="M430.636 666.455L433.839 671.781H433.953L437.17 666.455H440.175L435.693 673.727L440.246 681H437.192L433.953 675.709H433.839L430.601 681H427.561L432.156 673.727L427.618 666.455H430.636ZM454.713 673.727C454.713 675.295 454.42 676.637 453.832 677.754C453.25 678.867 452.455 679.719 451.446 680.311C450.442 680.903 449.304 681.199 448.03 681.199C446.756 681.199 445.615 680.903 444.607 680.311C443.603 679.714 442.807 678.86 442.22 677.747C441.638 676.63 441.347 675.29 441.347 673.727C441.347 672.16 441.638 670.82 442.22 669.707C442.807 668.59 443.603 667.735 444.607 667.143C445.615 666.552 446.756 666.256 448.03 666.256C449.304 666.256 450.442 666.552 451.446 667.143C452.455 667.735 453.25 668.59 453.832 669.707C454.42 670.82 454.713 672.16 454.713 673.727ZM452.064 673.727C452.064 672.624 451.891 671.694 451.545 670.936C451.205 670.174 450.731 669.598 450.125 669.21C449.519 668.817 448.821 668.621 448.03 668.621C447.239 668.621 446.541 668.817 445.935 669.21C445.329 669.598 444.853 670.174 444.507 670.936C444.166 671.694 443.996 672.624 443.996 673.727C443.996 674.83 444.166 675.763 444.507 676.526C444.853 677.283 445.329 677.858 445.935 678.251C446.541 678.64 447.239 678.834 448.03 678.834C448.821 678.834 449.519 678.64 450.125 678.251C450.731 677.858 451.205 677.283 451.545 676.526C451.891 675.763 452.064 674.83 452.064 673.727ZM457.204 681V666.455H462.659C463.776 666.455 464.714 666.649 465.471 667.037C466.234 667.425 466.809 667.97 467.197 668.67C467.59 669.366 467.787 670.179 467.787 671.107C467.787 672.039 467.588 672.849 467.19 673.536C466.797 674.217 466.217 674.745 465.45 675.119C464.683 675.489 463.741 675.673 462.623 675.673H458.738V673.486H462.268C462.922 673.486 463.457 673.396 463.873 673.216C464.29 673.031 464.598 672.764 464.797 672.413C465 672.058 465.102 671.623 465.102 671.107C465.102 670.59 465 670.15 464.797 669.786C464.593 669.416 464.283 669.137 463.866 668.947C463.449 668.753 462.912 668.656 462.254 668.656H459.839V681H457.204ZM464.718 674.409L468.319 681H465.379L461.842 674.409H464.718Z" fill="black"/>
<path d="M162.5 126.5H216C246.652 126.5 271.5 151.348 271.5 182C271.5 212.652 246.652 237.5 216 237.5H162.5V126.5Z" stroke="black" stroke-width="3"/>
<path d="M162.5 268.5H216C246.652 268.5 271.5 293.348 271.5 324C271.5 354.652 246.652 379.5 216 379.5H162.5V268.5Z" stroke="black" stroke-width="3"/>
<path d="M162.5 410.5H216C246.652 410.5 271.5 435.348 271.5 466C271.5 496.652 246.652 521.5 216 521.5H162.5V410.5Z" stroke="black" stroke-width="3"/>
<path d="M683 249L697 241L683 233" stroke="black" stroke-width="3"/>
<path d="M742 201L734 187L726 201" stroke="black" stroke-width="3"/>
<path d="M279 189L293 181L279 173" stroke="black" stroke-width="3"/>
<path d="M279 330L293 322L279 314" stroke="black" stroke-width="3"/>
<path d="M293 661L307 653L293 645" stroke="black" stroke-width="3"/>
<path d="M279 473L293 465L279 457" stroke="black" stroke-width="3"/>
<path d="M485 221L499 213L485 205" stroke="black" stroke-width="3"/>
<path d="M501 680L515 672L501 664" stroke="black" stroke-width="3"/>
<path d="M50 30L36 38L50 46" stroke="black" stroke-width="3"/>
<path d="M2 61L10 75L18 61" stroke="black" stroke-width="3"/>
<path d="M29 371L43 363L29 355" stroke="black" stroke-width="3"/>
<path d="M29 510L43 502L29 494" stroke="black" stroke-width="3"/>
<path d="M29 773L43 765L29 757" stroke="black" stroke-width="3"/>
<path d="M715 32L701 40L715 48" stroke="black" stroke-width="3"/>
<path d="M84.7159 172H81.0227L91.7045 142.909H95.3409L106.023 172H102.33L93.6364 147.511H93.4091L84.7159 172ZM86.0795 160.636H100.966V163.761H86.0795V160.636Z" fill="black"/>
<path d="M90.7699 33.7244H85.4574C85.3059 32.8532 85.0265 32.0814 84.6193 31.4091C84.2121 30.7273 83.7055 30.1496 83.0994 29.6761C82.4934 29.2027 81.8021 28.8475 81.0256 28.6108C80.2585 28.3646 79.4299 28.2415 78.5398 28.2415C76.9583 28.2415 75.5568 28.6392 74.3352 29.4347C73.1136 30.2206 72.1572 31.3759 71.4659 32.9006C70.7746 34.4157 70.429 36.267 70.429 38.4545C70.429 40.6799 70.7746 42.5549 71.4659 44.0795C72.1667 45.5947 73.1231 46.7405 74.3352 47.517C75.5568 48.2841 76.9536 48.6676 78.5256 48.6676C79.3968 48.6676 80.2112 48.554 80.9688 48.3267C81.7358 48.09 82.4223 47.7443 83.0284 47.2898C83.6439 46.8352 84.16 46.2765 84.5767 45.6136C85.0028 44.9508 85.2964 44.1932 85.4574 43.3409L90.7699 43.3693C90.571 44.7519 90.1402 46.0492 89.4773 47.2614C88.8239 48.4735 87.9669 49.5436 86.9062 50.4716C85.8456 51.3902 84.6051 52.1098 83.1847 52.6307C81.7642 53.142 80.1875 53.3977 78.4545 53.3977C75.8977 53.3977 73.6155 52.8059 71.608 51.6222C69.6004 50.4384 68.0189 48.7292 66.8636 46.4943C65.7083 44.2595 65.1307 41.5795 65.1307 38.4545C65.1307 35.3201 65.7131 32.6402 66.8778 30.4148C68.0426 28.1799 69.6288 26.4706 71.6364 25.2869C73.6439 24.1032 75.9167 23.5114 78.4545 23.5114C80.0739 23.5114 81.5795 23.7386 82.9716 24.1932C84.3636 24.6477 85.6042 25.3153 86.6932 26.196C87.7822 27.0672 88.6771 28.1373 89.3778 29.4062C90.0881 30.6657 90.5521 32.1051 90.7699 33.7244ZM95.3686 53V31.1818H100.511V53H95.3686ZM97.9538 28.0852C97.1394 28.0852 96.4387 27.8153 95.8516 27.2756C95.2644 26.7263 94.9709 26.0682 94.9709 25.3011C94.9709 24.5246 95.2644 23.8665 95.8516 23.3267C96.4387 22.7775 97.1394 22.5028 97.9538 22.5028C98.7777 22.5028 99.4785 22.7775 100.056 23.3267C100.643 23.8665 100.937 24.5246 100.937 25.3011C100.937 26.0682 100.643 26.7263 100.056 27.2756C99.4785 27.8153 98.7777 28.0852 97.9538 28.0852ZM110.94 40.2159V53H105.798V31.1818H110.713V34.8892H110.969C111.471 33.6676 112.271 32.697 113.369 31.9773C114.477 31.2576 115.846 30.8977 117.474 30.8977C118.98 30.8977 120.292 31.2197 121.409 31.8636C122.536 32.5076 123.407 33.4403 124.023 34.6619C124.648 35.8835 124.955 37.3655 124.946 39.108V53H119.804V39.9034C119.804 38.4451 119.425 37.304 118.668 36.4801C117.92 35.6562 116.883 35.2443 115.557 35.2443C114.657 35.2443 113.857 35.4432 113.156 35.8409C112.465 36.2292 111.92 36.7926 111.523 37.5312C111.134 38.2699 110.94 39.1648 110.94 40.2159Z" fill="black"/>
<path d="M84.7159 311H81.0227L91.7045 281.909H95.3409L106.023 311H102.33L93.6364 286.511H93.4091L84.7159 311ZM86.0795 299.636H100.966V302.761H86.0795V299.636Z" fill="black"/>
<path d="M84.7159 450H81.0227L91.7045 420.909H95.3409L106.023 450H102.33L93.6364 425.511H93.4091L84.7159 450ZM86.0795 438.636H100.966V441.761H86.0795V438.636Z" fill="black"/>
<path d="M84.5227 240V210.909H94.6932C96.7197 210.909 98.3911 211.259 99.7074 211.96C101.024 212.652 102.004 213.584 102.648 214.759C103.292 215.923 103.614 217.216 103.614 218.636C103.614 219.886 103.391 220.919 102.946 221.733C102.51 222.547 101.933 223.191 101.213 223.665C100.503 224.138 99.7311 224.489 98.8977 224.716V225C99.7879 225.057 100.683 225.369 101.582 225.938C102.482 226.506 103.235 227.32 103.841 228.381C104.447 229.441 104.75 230.739 104.75 232.273C104.75 233.731 104.419 235.043 103.756 236.207C103.093 237.372 102.046 238.295 100.616 238.977C99.1866 239.659 97.3258 240 95.0341 240H84.5227ZM88.0455 236.875H95.0341C97.3352 236.875 98.9688 236.43 99.9347 235.54C100.91 234.64 101.398 233.551 101.398 232.273C101.398 231.288 101.147 230.379 100.645 229.545C100.143 228.703 99.428 228.03 98.5 227.528C97.572 227.017 96.4735 226.761 95.2045 226.761H88.0455V236.875ZM88.0455 223.693H94.5795C95.6402 223.693 96.5966 223.485 97.4489 223.068C98.3106 222.652 98.9924 222.064 99.4943 221.307C100.006 220.549 100.261 219.659 100.261 218.636C100.261 217.358 99.8163 216.274 98.9261 215.384C98.036 214.484 96.625 214.034 94.6932 214.034H88.0455V223.693Z" fill="black"/>
<path d="M92.3562 362.953H89.0359C88.9412 362.408 88.7666 361.926 88.5121 361.506C88.2576 361.08 87.9409 360.719 87.5621 360.423C87.1834 360.127 86.7513 359.905 86.266 359.757C85.7866 359.603 85.2687 359.526 84.7124 359.526C83.724 359.526 82.848 359.775 82.0845 360.272C81.321 360.763 80.7232 361.485 80.2912 362.438C79.8591 363.385 79.6431 364.542 79.6431 365.909C79.6431 367.3 79.8591 368.472 80.2912 369.425C80.7292 370.372 81.3269 371.088 82.0845 371.573C82.848 372.053 83.721 372.292 84.7035 372.292C85.248 372.292 85.757 372.221 86.2305 372.079C86.7099 371.931 87.139 371.715 87.5178 371.431C87.9025 371.147 88.225 370.798 88.4854 370.384C88.7518 369.969 88.9353 369.496 89.0359 368.963L92.3562 368.981C92.2319 369.845 91.9626 370.656 91.5483 371.413C91.1399 372.171 90.6043 372.84 89.9414 373.42C89.2785 373.994 88.5032 374.444 87.6154 374.769C86.7276 375.089 85.7422 375.249 84.6591 375.249C83.0611 375.249 81.6347 374.879 80.38 374.139C79.1252 373.399 78.1368 372.331 77.4148 370.934C76.6927 369.537 76.3317 367.862 76.3317 365.909C76.3317 363.95 76.6957 362.275 77.4237 360.884C78.1516 359.487 79.143 358.419 80.3977 357.679C81.6525 356.94 83.0729 356.57 84.6591 356.57C85.6712 356.57 86.6122 356.712 87.4822 356.996C88.3523 357.28 89.1276 357.697 89.8082 358.248C90.4889 358.792 91.0482 359.461 91.4862 360.254C91.93 361.041 92.2201 361.941 92.3562 362.953ZM95.2304 375V361.364H98.4442V375H95.2304ZM96.8461 359.428C96.3372 359.428 95.8992 359.26 95.5322 358.922C95.1653 358.579 94.9818 358.168 94.9818 357.688C94.9818 357.203 95.1653 356.792 95.5322 356.454C95.8992 356.111 96.3372 355.939 96.8461 355.939C97.3611 355.939 97.799 356.111 98.1601 356.454C98.527 356.792 98.7105 357.203 98.7105 357.688C98.7105 358.168 98.527 358.579 98.1601 358.922C97.799 359.26 97.3611 359.428 96.8461 359.428ZM104.963 367.01V375H101.749V361.364H104.821V363.681H104.98C105.294 362.917 105.794 362.311 106.481 361.861C107.173 361.411 108.029 361.186 109.047 361.186C109.988 361.186 110.807 361.387 111.506 361.79C112.21 362.192 112.754 362.775 113.139 363.539C113.53 364.302 113.722 365.228 113.716 366.317V375H110.502V366.815C110.502 365.903 110.266 365.19 109.792 364.675C109.325 364.16 108.677 363.903 107.848 363.903C107.286 363.903 106.786 364.027 106.348 364.276C105.916 364.518 105.575 364.87 105.327 365.332C105.084 365.794 104.963 366.353 104.963 367.01Z" fill="black"/>
<path d="M92.3562 501.953H89.0359C88.9412 501.408 88.7666 500.926 88.5121 500.506C88.2576 500.08 87.9409 499.719 87.5621 499.423C87.1834 499.127 86.7513 498.905 86.266 498.757C85.7866 498.603 85.2687 498.526 84.7124 498.526C83.724 498.526 82.848 498.775 82.0845 499.272C81.321 499.763 80.7232 500.485 80.2912 501.438C79.8591 502.385 79.6431 503.542 79.6431 504.909C79.6431 506.3 79.8591 507.472 80.2912 508.425C80.7292 509.372 81.3269 510.088 82.0845 510.573C82.848 511.053 83.721 511.292 84.7035 511.292C85.248 511.292 85.757 511.221 86.2305 511.079C86.7099 510.931 87.139 510.715 87.5178 510.431C87.9025 510.147 88.225 509.798 88.4854 509.384C88.7518 508.969 88.9353 508.496 89.0359 507.963L92.3562 507.981C92.2319 508.845 91.9626 509.656 91.5483 510.413C91.1399 511.171 90.6043 511.84 89.9414 512.42C89.2785 512.994 88.5032 513.444 87.6154 513.769C86.7276 514.089 85.7422 514.249 84.6591 514.249C83.0611 514.249 81.6347 513.879 80.38 513.139C79.1252 512.399 78.1368 511.331 77.4148 509.934C76.6927 508.537 76.3317 506.862 76.3317 504.909C76.3317 502.95 76.6957 501.275 77.4237 499.884C78.1516 498.487 79.143 497.419 80.3977 496.679C81.6525 495.94 83.0729 495.57 84.6591 495.57C85.6712 495.57 86.6122 495.712 87.4822 495.996C88.3523 496.28 89.1276 496.697 89.8082 497.248C90.4889 497.792 91.0482 498.461 91.4862 499.254C91.93 500.041 92.2201 500.941 92.3562 501.953ZM95.2304 514V500.364H98.4442V514H95.2304ZM96.8461 498.428C96.3372 498.428 95.8992 498.26 95.5322 497.922C95.1653 497.579 94.9818 497.168 94.9818 496.688C94.9818 496.203 95.1653 495.792 95.5322 495.454C95.8992 495.111 96.3372 494.939 96.8461 494.939C97.3611 494.939 97.799 495.111 98.1601 495.454C98.527 495.792 98.7105 496.203 98.7105 496.688C98.7105 497.168 98.527 497.579 98.1601 497.922C97.799 498.26 97.3611 498.428 96.8461 498.428ZM104.963 506.01V514H101.749V500.364H104.821V502.681H104.98C105.294 501.917 105.794 501.311 106.481 500.861C107.173 500.411 108.029 500.186 109.047 500.186C109.988 500.186 110.807 500.387 111.506 500.79C112.21 501.192 112.754 501.775 113.139 502.539C113.53 503.302 113.722 504.228 113.716 505.317V514H110.502V505.815C110.502 504.903 110.266 504.19 109.792 503.675C109.325 503.16 108.677 502.903 107.848 502.903C107.286 502.903 106.786 503.027 106.348 503.276C105.916 503.518 105.575 503.87 105.327 504.332C105.084 504.794 104.963 505.353 104.963 506.01Z" fill="black"/>
<path d="M194.303 189H191.49L196.611 174.455H199.864L204.991 189H202.179L198.294 177.438H198.18L194.303 189ZM194.395 183.297H202.065V185.413H194.395V183.297ZM218.86 174.455V189H216.517L209.663 179.092H209.542V189H206.907V174.455H209.265L216.112 184.369H216.24V174.455H218.86ZM226.661 189H221.732V174.455H226.76C228.204 174.455 229.445 174.746 230.482 175.328C231.523 175.906 232.323 176.737 232.882 177.821C233.441 178.905 233.72 180.203 233.72 181.713C233.72 183.228 233.438 184.53 232.875 185.619C232.316 186.708 231.509 187.544 230.453 188.126C229.402 188.709 228.138 189 226.661 189ZM224.366 186.72H226.533C227.546 186.72 228.391 186.536 229.068 186.166C229.745 185.792 230.254 185.236 230.595 184.497C230.936 183.754 231.107 182.826 231.107 181.713C231.107 180.6 230.936 179.677 230.595 178.943C230.254 178.205 229.75 177.653 229.082 177.288C228.42 176.919 227.596 176.734 226.611 176.734H224.366V186.72Z" fill="black"/>
<path d="M430.432 212.727C430.432 214.295 430.138 215.637 429.551 216.754C428.969 217.867 428.173 218.719 427.165 219.311C426.161 219.903 425.022 220.199 423.749 220.199C422.475 220.199 421.334 219.903 420.325 219.311C419.321 218.714 418.526 217.86 417.939 216.747C417.357 215.63 417.065 214.29 417.065 212.727C417.065 211.16 417.357 209.82 417.939 208.707C418.526 207.59 419.321 206.735 420.325 206.143C421.334 205.552 422.475 205.256 423.749 205.256C425.022 205.256 426.161 205.552 427.165 206.143C428.173 206.735 428.969 207.59 429.551 208.707C430.138 209.82 430.432 211.16 430.432 212.727ZM427.783 212.727C427.783 211.624 427.61 210.694 427.264 209.936C426.923 209.174 426.45 208.598 425.844 208.21C425.238 207.817 424.539 207.621 423.749 207.621C422.958 207.621 422.259 207.817 421.653 208.21C421.047 208.598 420.571 209.174 420.226 209.936C419.885 210.694 419.714 211.624 419.714 212.727C419.714 213.83 419.885 214.763 420.226 215.526C420.571 216.283 421.047 216.858 421.653 217.251C422.259 217.64 422.958 217.834 423.749 217.834C424.539 217.834 425.238 217.64 425.844 217.251C426.45 216.858 426.923 216.283 427.264 215.526C427.61 214.763 427.783 213.83 427.783 212.727ZM432.923 220V205.455H438.377C439.495 205.455 440.432 205.649 441.19 206.037C441.952 206.425 442.528 206.97 442.916 207.67C443.309 208.366 443.505 209.179 443.505 210.107C443.505 211.039 443.306 211.849 442.909 212.536C442.516 213.217 441.936 213.745 441.169 214.119C440.402 214.489 439.459 214.673 438.342 214.673H434.457V212.486H437.987C438.64 212.486 439.175 212.396 439.592 212.216C440.009 212.031 440.316 211.764 440.515 211.413C440.719 211.058 440.821 210.623 440.821 210.107C440.821 209.59 440.719 209.15 440.515 208.786C440.312 208.416 440.002 208.137 439.585 207.947C439.168 207.753 438.631 207.656 437.973 207.656H435.558V220H432.923ZM440.437 213.409L444.038 220H441.098L437.561 213.409H440.437Z" fill="black"/>
<path d="M635.432 241.727C635.432 243.295 635.138 244.637 634.551 245.754C633.969 246.867 633.173 247.719 632.165 248.311C631.161 248.903 630.022 249.199 628.749 249.199C627.475 249.199 626.334 248.903 625.325 248.311C624.321 247.714 623.526 246.86 622.939 245.747C622.357 244.63 622.065 243.29 622.065 241.727C622.065 240.16 622.357 238.82 622.939 237.707C623.526 236.59 624.321 235.735 625.325 235.143C626.334 234.552 627.475 234.256 628.749 234.256C630.022 234.256 631.161 234.552 632.165 235.143C633.173 235.735 633.969 236.59 634.551 237.707C635.138 238.82 635.432 240.16 635.432 241.727ZM632.783 241.727C632.783 240.624 632.61 239.694 632.264 238.936C631.923 238.174 631.45 237.598 630.844 237.21C630.238 236.817 629.539 236.621 628.749 236.621C627.958 236.621 627.259 236.817 626.653 237.21C626.047 237.598 625.571 238.174 625.226 238.936C624.885 239.694 624.714 240.624 624.714 241.727C624.714 242.83 624.885 243.763 625.226 244.526C625.571 245.283 626.047 245.858 626.653 246.251C627.259 246.64 627.958 246.834 628.749 246.834C629.539 246.834 630.238 246.64 630.844 246.251C631.45 245.858 631.923 245.283 632.264 244.526C632.61 243.763 632.783 242.83 632.783 241.727ZM637.923 249V234.455H643.377C644.495 234.455 645.432 234.649 646.19 235.037C646.952 235.425 647.528 235.97 647.916 236.67C648.309 237.366 648.505 238.179 648.505 239.107C648.505 240.039 648.306 240.849 647.909 241.536C647.516 242.217 646.936 242.745 646.169 243.119C645.402 243.489 644.459 243.673 643.342 243.673H639.457V241.486H642.987C643.64 241.486 644.175 241.396 644.592 241.216C645.009 241.031 645.316 240.764 645.515 240.413C645.719 240.058 645.821 239.623 645.821 239.107C645.821 238.59 645.719 238.15 645.515 237.786C645.312 237.416 645.002 237.137 644.585 236.947C644.168 236.753 643.631 236.656 642.973 236.656H640.558V249H637.923ZM645.437 242.409L649.038 249H646.098L642.561 242.409H645.437Z" fill="black"/>
<path d="M194.303 330H191.49L196.611 315.455H199.864L204.991 330H202.179L198.294 318.438H198.18L194.303 330ZM194.395 324.297H202.065V326.413H194.395V324.297ZM218.86 315.455V330H216.517L209.663 320.092H209.542V330H206.907V315.455H209.265L216.112 325.369H216.24V315.455H218.86ZM226.661 330H221.732V315.455H226.76C228.204 315.455 229.445 315.746 230.482 316.328C231.523 316.906 232.323 317.737 232.882 318.821C233.441 319.905 233.72 321.203 233.72 322.713C233.72 324.228 233.438 325.53 232.875 326.619C232.316 327.708 231.509 328.544 230.453 329.126C229.402 329.709 228.138 330 226.661 330ZM224.366 327.72H226.533C227.546 327.72 228.391 327.536 229.068 327.166C229.745 326.792 230.254 326.236 230.595 325.497C230.936 324.754 231.107 323.826 231.107 322.713C231.107 321.6 230.936 320.677 230.595 319.943C230.254 319.205 229.75 318.653 229.082 318.288C228.42 317.919 227.596 317.734 226.611 317.734H224.366V327.72Z" fill="black"/>
<path d="M194.303 474H191.49L196.611 459.455H199.864L204.991 474H202.179L198.294 462.438H198.18L194.303 474ZM194.395 468.297H202.065V470.413H194.395V468.297ZM218.86 459.455V474H216.517L209.663 464.092H209.542V474H206.907V459.455H209.265L216.112 469.369H216.24V459.455H218.86ZM226.661 474H221.732V459.455H226.76C228.204 459.455 229.445 459.746 230.482 460.328C231.523 460.906 232.323 461.737 232.882 462.821C233.441 463.905 233.72 465.203 233.72 466.713C233.72 468.228 233.438 469.53 232.875 470.619C232.316 471.708 231.509 472.544 230.453 473.126C229.402 473.709 228.138 474 226.661 474ZM224.366 471.72H226.533C227.546 471.72 228.391 471.536 229.068 471.166C229.745 470.792 230.254 470.236 230.595 469.497C230.936 468.754 231.107 467.826 231.107 466.713C231.107 465.6 230.936 464.677 230.595 463.943C230.254 463.205 229.75 462.653 229.082 462.288C228.42 461.919 227.596 461.734 226.611 461.734H224.366V471.72Z" fill="black"/>
<path d="M84.7159 632H81.0227L91.7045 602.909H95.3409L106.023 632H102.33L93.6364 607.511H93.4091L84.7159 632ZM86.0795 620.636H100.966V623.761H86.0795V620.636Z" fill="black"/>
<path d="M84.5227 700V670.909H94.6932C96.7197 670.909 98.3911 671.259 99.7074 671.96C101.024 672.652 102.004 673.584 102.648 674.759C103.292 675.923 103.614 677.216 103.614 678.636C103.614 679.886 103.391 680.919 102.946 681.733C102.51 682.547 101.933 683.191 101.213 683.665C100.503 684.138 99.7311 684.489 98.8977 684.716V685C99.7879 685.057 100.683 685.369 101.582 685.938C102.482 686.506 103.235 687.32 103.841 688.381C104.447 689.441 104.75 690.739 104.75 692.273C104.75 693.731 104.419 695.043 103.756 696.207C103.093 697.372 102.046 698.295 100.616 698.977C99.1866 699.659 97.3258 700 95.0341 700H84.5227ZM88.0455 696.875H95.0341C97.3352 696.875 98.9688 696.43 99.9347 695.54C100.91 694.64 101.398 693.551 101.398 692.273C101.398 691.288 101.147 690.379 100.645 689.545C100.143 688.703 99.428 688.03 98.5 687.528C97.572 687.017 96.4735 686.761 95.2045 686.761H88.0455V696.875ZM88.0455 683.693H94.5795C95.6402 683.693 96.5966 683.485 97.4489 683.068C98.3106 682.652 98.9924 682.064 99.4943 681.307C100.006 680.549 100.261 679.659 100.261 678.636C100.261 677.358 99.8163 676.274 98.9261 675.384C98.036 674.484 96.625 674.034 94.6932 674.034H88.0455V683.693Z" fill="black"/>
<path d="M583.432 668.182C583.261 666.742 582.57 665.625 581.358 664.83C580.146 664.034 578.659 663.636 576.898 663.636C575.61 663.636 574.483 663.845 573.517 664.261C572.561 664.678 571.813 665.251 571.273 665.98C570.742 666.709 570.477 667.538 570.477 668.466C570.477 669.242 570.662 669.91 571.031 670.469C571.41 671.018 571.893 671.477 572.48 671.847C573.067 672.206 573.683 672.505 574.327 672.741C574.971 672.969 575.562 673.153 576.102 673.295L579.057 674.091C579.814 674.29 580.657 674.564 581.585 674.915C582.523 675.265 583.418 675.743 584.27 676.349C585.132 676.946 585.842 677.713 586.401 678.651C586.959 679.588 587.239 680.739 587.239 682.102C587.239 683.674 586.827 685.095 586.003 686.364C585.188 687.633 583.995 688.641 582.423 689.389C580.861 690.137 578.962 690.511 576.727 690.511C574.644 690.511 572.84 690.175 571.315 689.503C569.8 688.83 568.607 687.893 567.736 686.69C566.874 685.488 566.386 684.091 566.273 682.5H569.909C570.004 683.598 570.373 684.508 571.017 685.227C571.67 685.937 572.494 686.468 573.489 686.818C574.492 687.159 575.572 687.33 576.727 687.33C578.072 687.33 579.279 687.112 580.349 686.676C581.42 686.231 582.267 685.616 582.892 684.83C583.517 684.034 583.83 683.106 583.83 682.045C583.83 681.08 583.56 680.294 583.02 679.688C582.48 679.081 581.77 678.589 580.889 678.21C580.009 677.831 579.057 677.5 578.034 677.216L574.455 676.193C572.182 675.54 570.383 674.607 569.057 673.395C567.731 672.183 567.068 670.597 567.068 668.636C567.068 667.008 567.509 665.587 568.389 664.375C569.279 663.153 570.473 662.206 571.969 661.534C573.474 660.852 575.155 660.511 577.011 660.511C578.886 660.511 580.553 660.848 582.011 661.52C583.47 662.183 584.625 663.092 585.477 664.247C586.339 665.402 586.794 666.714 586.841 668.182H583.432Z" fill="black"/>
<path d="M92.3562 762.953H89.0359C88.9412 762.408 88.7666 761.926 88.5121 761.506C88.2576 761.08 87.9409 760.719 87.5621 760.423C87.1834 760.127 86.7513 759.905 86.266 759.757C85.7866 759.603 85.2687 759.526 84.7124 759.526C83.724 759.526 82.848 759.775 82.0845 760.272C81.321 760.763 80.7232 761.485 80.2912 762.438C79.8591 763.385 79.6431 764.542 79.6431 765.909C79.6431 767.3 79.8591 768.472 80.2912 769.425C80.7292 770.372 81.3269 771.088 82.0845 771.573C82.848 772.053 83.721 772.292 84.7035 772.292C85.248 772.292 85.757 772.221 86.2305 772.079C86.7099 771.931 87.139 771.715 87.5178 771.431C87.9025 771.147 88.225 770.798 88.4854 770.384C88.7518 769.969 88.9353 769.496 89.0359 768.963L92.3562 768.981C92.2319 769.845 91.9626 770.656 91.5483 771.413C91.1399 772.171 90.6043 772.84 89.9414 773.42C89.2785 773.994 88.5032 774.444 87.6154 774.769C86.7276 775.089 85.7422 775.249 84.6591 775.249C83.0611 775.249 81.6347 774.879 80.38 774.139C79.1252 773.399 78.1368 772.331 77.4148 770.934C76.6927 769.537 76.3317 767.862 76.3317 765.909C76.3317 763.95 76.6957 762.275 77.4237 760.884C78.1516 759.487 79.143 758.419 80.3977 757.679C81.6525 756.94 83.0729 756.57 84.6591 756.57C85.6712 756.57 86.6122 756.712 87.4822 756.996C88.3523 757.28 89.1276 757.697 89.8082 758.248C90.4889 758.792 91.0482 759.461 91.4862 760.254C91.93 761.041 92.2201 761.941 92.3562 762.953ZM95.2304 775V761.364H98.4442V775H95.2304ZM96.8461 759.428C96.3372 759.428 95.8992 759.26 95.5322 758.922C95.1653 758.579 94.9818 758.168 94.9818 757.688C94.9818 757.203 95.1653 756.792 95.5322 756.454C95.8992 756.111 96.3372 755.939 96.8461 755.939C97.3611 755.939 97.799 756.111 98.1601 756.454C98.527 756.792 98.7105 757.203 98.7105 757.688C98.7105 758.168 98.527 758.579 98.1601 758.922C97.799 759.26 97.3611 759.428 96.8461 759.428ZM104.963 767.01V775H101.749V761.364H104.821V763.681H104.98C105.294 762.917 105.794 762.311 106.481 761.861C107.173 761.411 108.029 761.186 109.047 761.186C109.988 761.186 110.807 761.387 111.506 761.79C112.21 762.192 112.754 762.775 113.139 763.539C113.53 764.302 113.722 765.228 113.716 766.317V775H110.502V766.815C110.502 765.903 110.266 765.19 109.792 764.675C109.325 764.16 108.677 763.903 107.848 763.903C107.286 763.903 106.786 764.027 106.348 764.276C105.916 764.518 105.575 764.87 105.327 765.332C105.084 765.794 104.963 766.353 104.963 767.01Z" fill="black"/>
<path d="M724.393 240.02H721.438C721.384 239.637 721.274 239.298 721.107 239.001C720.941 238.699 720.727 238.443 720.466 238.232C720.205 238.02 719.904 237.858 719.562 237.746C719.225 237.633 718.858 237.577 718.462 237.577C717.747 237.577 717.124 237.755 716.593 238.11C716.063 238.461 715.651 238.974 715.359 239.648C715.066 240.319 714.92 241.133 714.92 242.091C714.92 243.076 715.066 243.904 715.359 244.574C715.656 245.244 716.069 245.75 716.6 246.092C717.131 246.434 717.745 246.605 718.442 246.605C718.833 246.605 719.196 246.553 719.528 246.45C719.866 246.346 720.165 246.195 720.426 245.998C720.687 245.795 720.903 245.55 721.074 245.262C721.249 244.974 721.37 244.646 721.438 244.277L724.393 244.29C724.317 244.925 724.125 245.536 723.82 246.126C723.518 246.71 723.111 247.234 722.598 247.698C722.09 248.157 721.483 248.521 720.777 248.791C720.075 249.056 719.281 249.189 718.395 249.189C717.162 249.189 716.06 248.91 715.089 248.352C714.122 247.795 713.357 246.987 712.795 245.93C712.237 244.873 711.958 243.593 711.958 242.091C711.958 240.584 712.241 239.302 712.808 238.245C713.375 237.188 714.144 236.383 715.116 235.83C716.087 235.272 717.18 234.993 718.395 234.993C719.196 234.993 719.938 235.105 720.621 235.33C721.31 235.555 721.919 235.884 722.45 236.315C722.981 236.743 723.413 237.267 723.745 237.887C724.083 238.508 724.299 239.219 724.393 240.02ZM731.117 249.202C730.069 249.202 729.162 248.98 728.398 248.534C727.637 248.085 727.05 247.459 726.637 246.659C726.223 245.854 726.016 244.92 726.016 243.859C726.016 242.788 726.223 241.853 726.637 241.052C727.05 240.247 727.637 239.621 728.398 239.176C729.162 238.726 730.069 238.501 731.117 238.501C732.165 238.501 733.069 238.726 733.829 239.176C734.594 239.621 735.183 240.247 735.597 241.052C736.011 241.853 736.218 242.788 736.218 243.859C736.218 244.92 736.011 245.854 735.597 246.659C735.183 247.459 734.594 248.085 733.829 248.534C733.069 248.98 732.165 249.202 731.117 249.202ZM731.13 246.976C731.607 246.976 732.005 246.841 732.324 246.571C732.644 246.297 732.884 245.923 733.046 245.451C733.213 244.979 733.296 244.441 733.296 243.838C733.296 243.236 733.213 242.698 733.046 242.226C732.884 241.754 732.644 241.38 732.324 241.106C732.005 240.831 731.607 240.694 731.13 240.694C730.649 240.694 730.244 240.831 729.916 241.106C729.592 241.38 729.347 241.754 729.18 242.226C729.018 242.698 728.937 243.236 728.937 243.838C728.937 244.441 729.018 244.979 729.18 245.451C729.347 245.923 729.592 246.297 729.916 246.571C730.244 246.841 730.649 246.976 731.13 246.976ZM744.732 244.587V238.636H747.607V249H744.847V247.118H744.739C744.505 247.725 744.116 248.213 743.572 248.582C743.032 248.951 742.373 249.135 741.595 249.135C740.902 249.135 740.293 248.978 739.767 248.663C739.24 248.348 738.829 247.9 738.532 247.32C738.239 246.74 738.091 246.045 738.086 245.235V238.636H740.961V244.722C740.965 245.334 741.129 245.818 741.453 246.173C741.777 246.528 742.211 246.706 742.756 246.706C743.102 246.706 743.426 246.627 743.727 246.47C744.028 246.308 744.271 246.069 744.456 245.755C744.645 245.44 744.737 245.051 744.732 244.587ZM755.418 238.636V240.795H749.177V238.636H755.418ZM750.594 236.153H753.468V245.815C753.468 246.081 753.509 246.288 753.59 246.436C753.671 246.58 753.783 246.681 753.927 246.74C754.076 246.798 754.246 246.827 754.44 246.827C754.575 246.827 754.71 246.816 754.845 246.794C754.98 246.767 755.083 246.746 755.155 246.733L755.607 248.872C755.463 248.917 755.261 248.969 755 249.027C754.739 249.09 754.422 249.128 754.049 249.142C753.356 249.169 752.749 249.076 752.227 248.865C751.71 248.654 751.307 248.325 751.019 247.88C750.731 247.435 750.59 246.872 750.594 246.193V236.153Z" fill="black"/>
</svg>
